<svg class="svg-icon" style="width: 1em; height: 1em;vertical-align: middle;fill: currentColor;overflow: hidden;" viewBox="0 0 1024 1024" version="1.1" xmlns="http://www.w3.org/2000/svg"><path d="M512 64C264.576 64 64 264.576 64 512c0 247.36 200.576 448 448 448s448-200.64 448-448C960 264.576 759.424 64 512 64zM512 844.736c-183.808 0-332.8-148.928-332.8-332.736S328.192 179.2 512 179.2s332.736 148.992 332.736 332.8S695.808 844.736 512 844.736z"  /><path d="M663.104 525.504 530.048 525.504l0 134.656 112.96 0C654.976 617.536 662.016 572.288 663.104 525.504z"  /><path d="M759.936 341.44c-35.52-51.456-86.528-91.328-146.304-112.768 21.888 34.56 39.936 72.32 53.312 112.768L759.936 341.44z"  /><path d="M644.288 368.448 530.048 368.448l0 130.048 133.056 0C662.016 453.376 655.552 409.728 644.288 368.448z"  /><path d="M365.184 498.496 496.64 498.496 496.64 368.448 384.768 368.448C373.248 409.664 366.528 453.312 365.184 498.496z"  /><path d="M496.64 341.44 496.64 211.392C482.688 212.096 468.992 213.824 455.552 216.384 429.632 254.016 408.384 296 393.088 341.44L496.64 341.44z"  /><path d="M530.048 341.44l106.048 0C621.312 296.704 600.832 255.168 575.68 217.856c-14.848-3.2-30.08-5.312-45.632-6.272L530.048 341.44z"  /><path d="M530.048 687.168l0 125.184c15.552-0.896 30.784-3.008 45.632-6.208 24.256-36.096 44.224-76.032 58.88-118.976L530.048 687.168z"  /><path d="M384.256 660.096 496.64 660.096 496.64 525.504 365.056 525.504C365.888 572.288 372.544 617.472 384.256 660.096z"  /><path d="M353.472 660.096c-11.776-42.624-18.304-87.872-19.2-134.656L211.328 525.44c2.176 48.832 16 94.592 38.656 134.656L353.472 660.096z"  /><path d="M693.824 525.504c-1.152 46.784-8 92.032-20.032 134.656l100.16 0c22.656-40.064 36.48-85.76 38.656-134.656L693.824 525.504z"  /><path d="M675.072 368.448c11.264 41.344 17.664 84.928 18.752 130.048l118.784 0c-2.048-46.912-14.784-91.136-36.032-130.048L675.072 368.448z"  /><path d="M665.344 687.168c-13.184 38.72-30.784 75.008-51.904 108.224 58.048-20.8 107.968-59.008 143.296-108.224L665.344 687.168z"  /><path d="M362.304 341.44C376.32 299.968 395.264 261.184 418.176 225.984 355.008 246.72 301.056 287.744 264.064 341.44L362.304 341.44z"  /><path d="M496.64 687.168 392.576 687.168c14.464 43.2 34.304 83.264 58.368 119.552 14.848 3.072 30.144 5.056 45.696 5.888L496.64 687.168z"  /><path d="M334.464 498.496C335.808 453.312 342.464 409.664 353.92 368.448L247.424 368.448C226.176 407.36 213.44 451.584 211.328 498.496L334.464 498.496z"  /><path d="M413.44 796.352c-21.056-33.472-38.592-70.144-51.648-109.184L267.328 687.168C303.168 737.216 354.112 775.808 413.44 796.352z"  /></svg>